<svg t="1710309419682" class="icon" viewBox="0 0 3068 1024" version="1.1" xmlns="http://www.w3.org/2000/svg" p-id="7298" width="200" height="200"><path d="M1544.821243 92.876689l-599.550498-92.205852c-32.293294-4.957304-60.054196 18.129569-65.011499 50.422862l-4.957304 33.00148h555.359674c32.718206 0 58.212912 25.353069 58.212912 58.071275v697.421841l103.67847-679.717184c5.098941-32.151657-15.296823-62.037117-47.731755-66.994422z" p-id="7299" fill="#1296db"></path><path d="M1405.875097 103.499483h-606.490724c-32.718206 0-54.955255 23.936696-54.955254 56.654902v803.791419c0 32.718206 22.237049 60.054196 54.955254 60.054196H1405.875097c32.718206 0 57.929637-27.33599 57.929637-60.054196V160.154385c0-32.718206-25.211431-56.654902-57.929637-56.654902z m-80.166686 553.801665c-12.322441 28.894-29.318912 53.963794-50.847775 75.492657-21.528863 21.528863-46.740294 38.525333-75.492656 50.847774-28.894 12.464078-59.770921 18.55448-92.630765 18.554481-33.00148 0-63.878402-6.232039-92.630764-18.554481-28.752363-12.322441-53.963794-29.318912-75.492657-50.847774-21.528863-21.528863-38.525333-46.740294-50.847774-75.492657-12.322441-28.894-18.55448-59.770921-18.55448-92.630764 0-33.00148 6.232039-63.878402 18.55448-92.630765C899.946824 443.145619 916.943294 417.934188 938.472157 396.405325 960.00102 374.876463 985.212451 358.02163 1014.106451 345.699188c28.752363-12.322441 59.770921-18.55448 92.630764-18.55448 33.00148 0 63.878402 6.232039 92.630765 18.55448 28.894 12.322441 53.963794 29.318912 75.492656 50.847775 21.528863 21.528863 38.525333 46.740294 50.847775 75.492656 12.322441 28.894 18.55448 59.770921 18.55448 92.630765 0 32.859843-6.232039 63.736765-18.55448 92.630764z" p-id="7300" fill="#1296db"></path><path d="M1114.668902 416.517816c30.027098 0 53.538882 7.365137 70.535352 22.095411 17.138108 14.730274 25.636343 35.834225 25.636343 63.311853 0 12.88899-3.399294 24.78652-10.339519 35.834225-6.940225 11.047706-17.56302 22.945235-31.868382 35.834226-7.2235 6.090402-14.022088 12.464078-20.67904 19.121029-4.390755 4.390755-8.214961 9.064784-11.472617 14.163726-2.549471 4.10748-4.249118 8.214961-4.957304 12.322441-0.708186 3.965843-1.133098 8.639873-1.133098 13.738813 0 17.138108-8.073324 25.77798-24.219971 25.777981-6.232039 0-11.189343-0.424912-14.871911-1.133098-3.257657-0.566549-6.090402-2.124559-8.356598-4.249118-2.124559-2.266196-3.399294-5.098941-3.824206-8.073323-0.708186-4.10748-0.991461-8.214961-0.849824-12.322442 0-27.33599 15.580098-54.813617 46.740294-82.149607 7.2235-6.232039 13.030627-11.33098 17.56302-15.580098 4.532392-4.10748 8.073324-8.073324 10.622794-11.614255 2.407833-3.257657 4.10748-6.940225 4.957304-10.906069 0.849824-3.682569 1.133098-7.931686 1.133098-13.030627 0-12.039167-4.10748-21.387225-12.180804-27.760902-8.073324-6.515314-19.404304-9.631333-33.709667-9.631333S1087.332912 465.80758 1078.693039 473.172717c-8.639873 7.365137-13.313902 16.288284-13.880451 26.769441-0.849824 15.863372-9.631333 23.795059-26.061255 23.795059-17.421382 0-26.061255-7.648412-26.061255-22.945235C1012.690078 478.838208 1022.321412 459.150629 1041.442441 442.012521 1060.280196 425.016051 1084.641804 416.517816 1114.668902 416.517816z m-12.180804 252.25595c5.240578 0 10.33952 0.849824 15.013549 2.832745 9.206422 3.824206 16.713196 10.481157 20.962313 18.696117 2.124559 4.249118 3.257657 8.78151 3.11602 13.45554 0 4.674029-0.991461 9.206422-3.11602 13.455539-4.10748 8.356598-11.614255 15.013549-20.962313 18.696117-4.674029 1.841284-9.631333 2.832745-15.013549 2.832746s-10.481157-0.991461-15.013549-2.832746c-9.206422-3.824206-16.713196-10.481157-20.962314-18.696117-2.124559-4.249118-3.257657-8.78151-3.116019-13.455539 0-4.815667 0.991461-9.348059 3.116019-13.45554 4.249118-8.356598 11.614255-15.013549 20.962314-18.696117 4.674029-1.982922 9.914608-2.974382 15.013549-2.832745z" p-id="7301" fill="#1296db"></path></svg>
